<svg xmlns="http://www.w3.org/2000/svg" width="243" height="28" viewBox="0 0 243 28" fill="none">
<path d="M6 15.2801C7.99529 15.2801 11.9386 16.0294 13.7517 15.1043C20.1972 11.8157 28.0901 8.16013 35.4564 11.5009C44.2752 15.5004 47.2722 16.0711 56.6958 16.0711C65.0258 16.0711 75.4251 9.52009 82.6639 15.6756C86.4177 18.8676 93.0287 20.0261 97.7366 20.0261C103.757 20.0261 115.004 12.6297 120.317 9.9189C127.707 6.14839 143.311 3.49103 150.204 9.74312C156.187 15.1695 162.876 18.4441 170.938 18.4441C179.552 18.4441 186.717 12.1161 195.529 12.1161C206.397 12.1161 211.343 21.6081 221.884 21.6081C228.964 21.6081 232.296 17.7074 237 12.9071" stroke="#DDD6FE" stroke-width="12" stroke-linecap="round" vector-effect="non-scaling-stroke"/>
</svg>