<svg width="578" height="587" viewBox="0 0 578 587" fill="none" xmlns="http://www.w3.org/2000/svg">
<path d="M331.248 283.828V257.059L321.578 266.326C308.039 252.883 286.677 251.043 271.004 262.027C252.452 275.026 248.753 301.17 262.893 318.92C277.273 336.971 305.205 338.819 321.383 322.168L314.157 314.699C294.752 333.748 262.629 318.534 264.835 291.374C265.834 279.07 275.969 268.222 287.986 265.88C297.197 264.085 307.864 266.804 314 274.093L304.449 283.827H331.247L331.248 283.828Z" fill="#C0884B"/>
<path d="M290.447 223.266C258.43 224.841 230.872 247.809 224.189 279.178C213.685 328.491 255.854 372.493 305.6 364.325C319.915 361.975 333.67 354.846 343.806 344.564L336.58 337.094C328.077 345.35 317.337 351.404 305.6 353.672C262.403 362.012 224.789 323.552 234.633 280.597C243.484 241.974 287.012 222.147 322.229 240.797C327.528 243.603 332.142 247.344 336.58 251.33L344.144 244.04C329.339 229.493 309.551 222.327 290.447 223.266H290.447Z" fill="#C0884B"/>
<path d="M190.573 294.245C190.573 350.988 236.737 397.151 293.479 397.151C350.221 397.151 396.384 350.988 396.384 294.245C396.384 237.503 350.221 191.339 293.479 191.339V201.919C344.387 201.919 385.805 243.336 385.805 294.245C385.805 345.155 344.387 386.571 293.479 386.571C242.57 386.571 201.153 345.154 201.153 294.245C201.153 269.585 210.756 246.399 228.194 228.961L220.714 221.48C201.278 240.916 190.573 266.758 190.573 294.245Z" fill="#C0884B"/>
<path d="M428.035 294.249C428.035 220.074 367.688 159.727 293.513 159.727C219.337 159.727 158.991 220.074 158.991 294.249C158.991 326.642 170.716 357.959 192.002 382.432L199.978 375.496C180.363 352.945 169.56 324.092 169.56 294.249C169.56 225.901 225.165 170.296 293.512 170.296C361.859 170.296 417.465 225.901 417.465 294.249C417.465 362.597 361.861 418.202 293.512 418.202V428.771C367.688 428.771 428.035 368.424 428.035 294.249L428.035 294.249Z" fill="#C0884B"/>
<path d="M451.882 243.459C423.681 156.138 329.697 108.039 242.376 136.239C187.878 153.839 146.756 197.572 132.373 253.225L142.618 255.872C156.089 203.747 194.597 162.788 245.628 146.307C327.398 119.9 415.406 164.94 441.814 246.71L451.882 243.459Z" fill="#C0884B"/>
<path d="M458.875 306.864L448.363 306.048C443.463 369.217 401.416 422.59 341.242 442.023C259.758 468.338 172.057 423.454 145.741 341.97L135.708 345.21C163.81 432.227 257.465 480.158 344.482 452.056C408.742 431.304 453.643 374.313 458.875 306.864Z" fill="#C0884B"/>
<path d="M490.713 312.927C494.02 278.123 488.013 243.02 473.342 211.413C459.11 180.751 437.12 154.055 409.748 134.212L403.56 142.748C429.478 161.539 450.3 186.817 463.778 215.852C477.662 245.764 483.346 278.986 480.216 311.93C470.467 414.542 379.053 490.091 276.442 480.341L275.444 490.838C383.844 501.138 480.413 421.326 490.713 312.927Z" fill="#C0884B"/>
<path d="M96.3179 275.565C90.3904 337.951 114.921 400.15 161.937 441.946L168.943 434.066C124.43 394.494 101.204 335.614 106.815 276.562C116.564 173.95 207.977 98.4009 310.588 108.15L311.585 97.6536C203.186 87.354 106.618 167.165 96.3179 275.565Z" fill="#C0884B"/>
<path d="M523.195 294.248C523.195 167.604 420.163 64.5718 293.52 64.5718C236.411 64.5718 181.631 85.7537 139.272 124.215C91.337 167.739 63.8447 229.714 63.8447 294.248C63.8447 420.892 166.877 523.924 293.52 523.924C359.357 523.924 422.167 495.497 465.846 445.932L457.916 438.944C416.244 486.233 356.324 513.354 293.52 513.354C172.704 513.354 74.4143 415.063 74.4143 294.248C74.4143 232.689 100.643 173.566 146.376 132.04C186.786 95.348 239.044 75.1409 293.52 75.1409C414.336 75.1409 512.626 173.432 512.626 294.247L523.195 294.248Z" fill="#C0884B"/>
<path d="M69.2033 182.55C93.5754 132.764 132.694 93.4055 182.329 68.7301C225.568 47.2345 273.727 38.7534 321.599 44.2018C368.236 49.5091 412.306 67.6435 449.044 96.6443L455.578 88.3681C417.297 58.1495 371.38 39.2544 322.792 33.7258C272.893 28.0464 222.699 36.8862 177.636 59.2889C125.904 85.0065 85.1344 126.026 59.7336 177.914L69.2033 182.55Z" fill="#C0884B"/>
<path d="M40.7702 228.725C28.0269 277.302 29.612 328.244 45.3533 376.044C63.424 430.916 98.2045 477.123 145.936 509.67L151.876 500.959C106.078 469.731 72.7064 425.395 55.3678 372.746C40.2643 326.882 38.7431 278.006 50.9689 231.401L40.7702 228.725Z" fill="#C0884B"/>
<path d="M495.821 146.505C524.158 184.744 540.89 230.112 544.207 277.705C553.802 415.337 449.636 535.116 312.004 544.711C274.887 547.298 238.59 541.799 204.124 528.367L200.295 538.192C236.223 552.193 274.055 557.926 312.738 555.229C456.169 545.23 564.724 420.404 554.726 276.972C551.268 227.37 533.829 180.085 504.294 140.228L495.821 146.505Z" fill="#C0884B"/>
<path d="M225.978 7.93884C170.413 21.1296 120.365 50.0124 81.2422 91.4647L88.9098 98.7018C126.617 58.7495 174.857 30.9118 228.413 18.1978C379.628 -17.6985 531.845 76.1155 567.743 227.325L578.001 224.89C540.762 68.0235 382.846 -29.2962 225.978 7.93884Z" fill="#C0884B"/>
<path d="M145.102 534.077C80.9377 494.532 36.0387 432.48 18.6776 359.35C9.04374 318.769 8.45944 277.613 16.943 237.025L6.62204 234.868C-2.1801 276.983 -1.57513 319.685 8.42053 361.785C26.4316 437.654 73.0081 502.03 139.57 543.052C186.375 571.899 239.047 586.726 292.576 586.726C315.17 586.726 337.922 584.083 360.442 578.737L358.005 568.478C284.874 585.839 209.264 573.62 145.102 534.077Z" fill="#C0884B"/>
</svg>
