<svg xmlns="http://www.w3.org/2000/svg" width="120" height="120" viewBox="0 0 120 120" fill="none">
  <path d="M70.0004 108.004H50.0003V104.004H70.0004V108.004Z" fill="white"/>
  <path d="M55.0001 100.005H48.6006V96.0043H55.0001V100.005Z" fill="white"/>
  <path d="M71.4023 100.005H61.0015V96.0043H71.4023V100.005Z" fill="white"/>
  <path d="M40.1435 53.5784C40.0476 54.3757 39.9975 55.1913 39.9975 55.9998C39.9976 59.8833 41.1107 63.6471 43.2161 66.8871C45.6758 70.4489 47.8815 75.1425 49.1191 79.4495C49.3886 80.3864 49.6147 81.2781 49.8334 82.1417C51.1443 87.312 51.7782 88.0027 53.597 88.0028H66.3982C68.2172 88.0028 68.8508 87.3123 70.1618 82.1417C70.3805 81.2796 70.6065 80.3878 70.8761 79.4495C70.9339 79.2478 70.9942 79.0459 71.0563 78.8414L74.8818 80.0111C74.8268 80.193 74.7737 80.3736 74.7215 80.554C74.4689 81.4302 74.251 82.2911 74.0393 83.1235C73.4622 85.3997 72.9645 87.3646 71.9894 88.9437C70.7363 90.9729 68.8551 92.0019 66.3982 92.0019L66.4015 92.003H53.6003C51.1434 92.003 49.2622 90.9741 48.0091 88.9448C47.0341 87.3657 46.5352 85.4018 45.9581 83.1257C45.7465 82.2933 45.5296 81.4324 45.277 80.5562C44.1495 76.6346 42.1446 72.3664 39.9135 69.1404L39.8815 69.0951C37.3415 65.1989 35.9984 60.6717 35.9984 56.0009C35.9984 55.0315 36.0563 54.0564 36.172 53.0997L40.1435 53.5784Z" fill="white"/>
  <path d="M39.6161 77.2161L28.3064 88.5257L25.4782 85.6964L36.7879 74.3867L39.6161 77.2161Z" fill="white"/>
  <path d="M94.5258 85.6964L91.6965 88.5257L80.3868 77.2161L83.2162 74.3867L94.5258 85.6964Z" fill="white"/>
  <path d="M60.0009 31.9995C73.235 31.9995 84.0023 42.7668 84.0023 56.0009C84.0023 60.6704 82.6606 65.1989 80.1193 69.0951L80.0883 69.1404C78.8634 70.9115 77.6844 73.0312 76.6796 75.2679L73.031 73.6293C74.1302 71.1825 75.4266 68.8511 76.7813 66.8882C78.8882 63.6481 80.0021 59.8845 80.0021 56.0009C80.002 44.9725 71.0293 35.9998 60.0009 35.9998C52.7616 35.9998 46.0673 39.9306 42.5295 46.2568L39.0378 44.3054C43.2813 36.7146 51.3137 31.9996 60.0009 31.9995Z" fill="white"/>
  <path d="M52.4283 46.698C49.6144 48.994 48.0013 52.3844 48.0013 55.9998C48.0014 57.5617 48.2971 59.0798 48.877 60.512L45.1698 62.0156C44.3936 60.1035 44.0011 58.081 44.0011 56.0009C44.0011 51.179 46.1518 46.6594 49.8997 43.6L52.4283 46.698Z" fill="white"/>
  <path d="M32.0004 54.0019V58.0021H16.0039V54.0019H32.0004Z" fill="white"/>
  <path d="M103.998 58.0021H88.0036V54.0019H103.998V58.0021Z" fill="white"/>
  <path d="M60.0009 40C62.4902 40 64.8794 40.5582 67.0992 41.6618L65.3202 45.2452C63.6578 44.4196 61.8679 44.0002 60.0009 44.0002C58.721 44.0002 57.4623 44.2007 56.2572 44.5973L55.0067 40.7983C56.6155 40.2691 58.2962 40 60.0009 40Z" fill="white"/>
  <path d="M92.5268 26.3077L81.2172 37.6173L78.3878 34.788L89.6975 23.4783L92.5268 26.3077Z" fill="white"/>
  <path d="M41.6162 34.7847L38.7869 37.614L27.4772 26.3043L30.3066 23.475L41.6162 34.7847Z" fill="white"/>
  <path d="M62.0021 28.0004H58.0019V12.0039H62.0021V28.0004Z" fill="white"/>
</svg>