<svg xmlns="http://www.w3.org/2000/svg" width="120" height="120" viewBox="0 0 120 120" fill="none">
  <path d="M60.0006 16.0015H40.6555C36.985 16.0015 33.9984 18.9873 33.9982 22.6577V23.9945H86.0041V22.6577C86.0038 18.9873 83.0172 16.0015 79.3467 16.0015H72.0028V12H79.3467C85.2229 12 90.0042 16.7815 90.0044 22.6577V27.9959H84.0039V30.4097L84.1509 30.5678L84.1476 30.5667C91.1558 38.1125 98.4032 45.9159 98.4032 61.9969C98.4031 66.5958 97.3503 71.1441 95.7684 76.5587C93.3963 84.6753 87.3943 98.6022 86.9572 99.6123C85.0661 104.506 80.3955 107.797 75.0456 108H44.9555C39.6055 107.798 34.9339 104.508 33.0429 99.6123C32.8344 99.1301 30.7718 94.337 28.6245 88.8827L32.3474 87.4188C34.5742 93.0762 36.7103 98.0127 36.7314 98.0621L36.7646 98.1428C38.0673 101.549 41.3254 103.845 45.0705 104.001H74.9328C78.6779 103.847 81.9347 101.551 83.2388 98.1428L83.2719 98.0621C83.3354 97.9182 89.5895 83.4461 91.9294 75.4387C93.4578 70.2087 94.405 66.1356 94.4051 61.998C94.4051 55.3807 93.1364 49.982 90.4113 45.0102C87.9741 40.5635 84.6928 37.0297 81.2198 33.29L80.0035 31.9797V27.9959H39.9987V31.9797L38.7825 33.29C35.3095 37.031 32.0281 40.5636 29.5909 45.0102C26.8658 49.9806 25.5972 55.3793 25.5972 61.998C25.5972 66.1356 26.5445 70.2087 28.0728 75.4387C28.4609 76.768 28.9839 78.3656 29.6274 80.1887L25.8559 81.521C25.187 79.6286 24.6398 77.9598 24.2306 76.5598C22.6501 71.1453 21.5957 66.597 21.5957 61.998C21.5957 45.917 28.8431 38.1136 35.8513 30.5678L35.9984 30.4097V27.9959H29.9978V22.6577C29.9981 16.7815 34.7793 12 40.6555 12H60.0006V16.0015Z" fill="white"/>
  <path d="M72.4075 95.0027C75.3314 95.608 77.9538 96.3736 79.7912 97.161L78.2156 100.837C76.6408 100.163 74.2273 99.4648 71.597 98.9201L72.4075 95.0027Z" fill="white"/>
  <path d="M61.0167 93.7532C61.9875 93.7603 62.9941 93.7956 64.0087 93.8605L63.7533 97.8531C62.8163 97.7924 61.8859 97.7596 60.9913 97.7525H60.6684C53.1324 97.7525 46.0743 99.4919 44.0323 100.717H44.0289L41.9724 97.2859C44.9377 95.5064 52.877 93.694 61.0167 93.7532Z" fill="white"/>
  <path d="M52.6898 69.4105L52.4111 73.402L47.6224 73.067C48.9306 74.3046 50.4204 75.3486 52.0518 76.153C55.0915 77.653 58.4914 78.2566 61.8824 77.901C64.7371 77.6005 67.3976 76.6621 69.7881 75.1114L69.7903 75.1092L71.9674 78.4649C69.0433 80.363 65.7915 81.5113 62.3015 81.8782C61.5297 81.9586 60.7565 81.9987 59.9862 81.9987C56.6233 81.9987 53.3083 81.2317 50.2827 79.7387C48.2463 78.7339 46.3871 77.4265 44.7642 75.8699L44.4546 80.3203L40.4631 80.0405L41.2614 68.6122L52.6898 69.4105Z" fill="white"/>
  <path d="M76.0308 75.0705H76.0286V75.0683L76.0308 75.0705Z" fill="white"/>
  <path d="M81.6333 55.9676C81.9014 57.4139 82.0235 58.8984 81.9982 60.3815C81.9022 65.8624 79.782 71.0774 76.0286 75.0683L73.1162 72.3295C76.187 69.0653 77.9213 64.7978 77.9989 60.3129C78.0201 59.0979 77.9205 57.8813 77.7004 56.6973L81.6333 55.9676Z" fill="white"/>
  <path d="M46.8871 47.665C43.8164 50.9291 42.0821 55.1968 42.0044 59.6816C41.9833 60.8938 42.0831 62.1093 42.3019 63.2905L38.3689 64.017L38.3656 64.0181C38.099 62.5746 37.9762 61.0931 38.003 59.613C38.0989 54.132 40.2189 48.916 43.9726 44.9251L46.8871 47.665Z" fill="white"/>
  <path d="M57.703 38.1174C61.8477 37.6813 66.0028 38.4223 69.7229 40.2569C71.759 41.2616 73.6174 42.5681 75.2402 44.1246L75.5498 39.6764L79.5402 39.9561L78.7419 51.3834L67.3136 50.5851L67.5933 46.5947L72.3809 46.9286C71.0728 45.6911 69.5828 44.6481 67.9515 43.8437C64.9103 42.3436 61.5121 41.7386 58.1209 42.0956C55.266 42.3962 52.6059 43.3344 50.2153 44.8853L48.0382 41.5295C50.9621 39.633 54.2132 38.4843 57.703 38.1174Z" fill="white"/>
</svg>