<svg xmlns="http://www.w3.org/2000/svg" width="120" height="120" viewBox="0 0 120 120" fill="none">
  <path d="M89.4609 48.4911L56.0454 66.8279C54.8982 67.4629 53.5872 67.7997 52.2622 67.7997L52.2633 67.8008C51.0373 67.8007 49.8636 67.5261 48.7731 66.9816L48.6791 66.9351L48.5918 66.8799L36.9535 59.4826L39.0983 56.1073L50.6415 63.4427C51.1492 63.6809 51.6936 63.8008 52.2633 63.8009C52.9124 63.8009 53.5535 63.6359 54.1151 63.3255L87.5361 44.9843L89.4609 48.4911Z" fill="white"/>
  <path d="M52.7254 43.023L30.2771 54.1129L28.506 50.5264L50.9532 39.4366L52.7254 43.023Z" fill="white"/>
  <path d="M67.7422 32.1167C69.1716 32.1167 70.5857 32.4798 71.8317 33.167L76.6221 35.733L74.7327 39.2597L69.9069 36.6727C69.2494 36.3087 68.4999 36.1166 67.7422 36.1166C67.0409 36.1166 66.369 36.2738 65.7467 36.5843L60.1548 39.347L58.3826 35.7617L63.969 33.0011C65.1429 32.4156 66.4158 32.1167 67.7422 32.1167Z" fill="white"/>
  <path fill-rule="evenodd" clip-rule="evenodd" d="M67.9976 21.2822C69.554 21.2822 71.094 21.6791 72.4486 22.4298L104.876 40.4526C106.802 41.5066 107.997 43.5232 107.997 45.7173L108 45.7206C108 47.5522 107.153 49.2749 105.745 50.4037L103.225 67.6128C102.875 70.2388 101.368 72.5223 99.0903 73.8769L99.0284 73.9123L91.7207 77.9155L89.7981 74.4076L97.0727 70.4232C98.2791 69.6936 99.0746 68.4753 99.2595 67.0755L99.2639 67.0457L101.331 52.9299L56.4114 77.5816C55.0652 78.3182 53.5396 78.706 52.0002 78.706C50.2365 78.706 48.5208 78.205 47.0407 77.2555L18.5206 59.1564L20.1789 72.2186C20.3736 73.3007 20.8718 74.3029 21.6195 75.1185C21.8861 75.409 22.1824 75.6735 22.4984 75.9034L47.4232 93.6852C48.4913 94.3596 49.7269 94.7167 50.9997 94.7167C52.1243 94.7167 53.2367 94.4334 54.2146 93.8986L74.4939 82.7899L76.4164 86.2979L56.135 97.4076C54.5687 98.2641 52.7931 98.7177 50.9997 98.7177C48.9452 98.7177 46.9471 98.1333 45.2242 97.0284L45.1424 96.9731L20.1568 79.146C19.6206 78.7566 19.1211 78.3104 18.6709 77.8193C17.3968 76.4281 16.5527 74.7125 16.231 72.8598L16.2166 72.7714L14.126 56.2997L14.1304 56.3019C12.7829 55.1646 12.0001 53.5042 12 51.7193C12 49.432 13.2707 47.3763 15.3167 46.3519L63.9015 22.243C65.1784 21.6067 66.5584 21.2822 67.9976 21.2822ZM67.9987 25.2843C67.1847 25.2844 66.406 25.4663 65.6837 25.8261L17.0999 49.9317C16.4242 50.2704 15.9999 50.9575 15.9999 51.7193C16 52.4022 16.3441 53.0309 16.9197 53.402L49.1899 73.8813C50.0322 74.4202 51.0016 74.7039 51.9991 74.7039C52.8709 74.7038 53.7312 74.4851 54.4888 74.0704L103.012 47.443C103.621 47.0833 103.998 46.4517 103.998 45.7195C103.998 44.9871 103.598 44.3119 102.954 43.9605L102.941 43.9539L70.5094 25.9289C69.7489 25.507 68.8792 25.2843 67.9987 25.2843Z" fill="white"/>
</svg>