<svg xmlns="http://www.w3.org/2000/svg" width="120" height="120" viewBox="0 0 120 120" fill="none">
  <path d="M82.408 69.4605C78.5938 78.4887 69.7968 84.3228 59.9967 84.3228C56.3647 84.3228 52.8695 83.541 49.6086 81.9989L51.3179 78.3836C54.0399 79.6706 56.96 80.3239 59.9967 80.3239C68.1852 80.3239 75.5353 75.4496 78.723 67.906L82.408 69.4605Z" fill="white"/>
  <path d="M47.026 64.6733L44.2565 67.5589L39.9668 63.4439C40.6696 67.5968 42.6445 71.4157 45.6982 74.4411L42.8823 77.2825C39.1375 73.5728 36.7495 68.8672 35.9635 63.7579L32.3781 67.5014L29.4903 64.7341L37.916 55.9348L47.026 64.6733Z" fill="white"/>
  <path d="M63.6838 35.9591C67.2497 36.5038 70.5863 37.8088 73.5976 39.8408C79.6876 43.9485 83.4971 50.4636 84.2012 57.581L87.812 53.8109L90.7009 56.576L82.2753 65.3753L73.1653 56.6357L75.9337 53.7479L80.2056 57.8452C79.5819 51.9496 76.4091 46.5628 71.3588 43.1564C68.8414 41.459 66.056 40.367 63.0802 39.9127L63.6838 35.9591Z" fill="white"/>
  <path d="M56.2123 40.0354C49.1314 41.3689 43.2385 46.4248 40.8325 53.2305L37.0603 51.8972C39.9389 43.7524 46.9941 37.7 55.4704 36.1039L56.2123 40.0354Z" fill="white"/>
  <path fill-rule="evenodd" clip-rule="evenodd" d="M89.6009 20C95.3354 20.0002 99.9999 24.6657 100 30.4002V89.6009C99.9998 95.3353 95.3353 99.9998 89.6009 100H30.4002C24.6657 99.9999 20.0002 95.3354 20 89.6009V30.4002C20.0001 24.6656 24.6656 20.0001 30.4002 20H89.6009ZM30.4002 24.0011C26.8712 24.0012 24.0012 26.8726 24.0011 30.4002V89.6009C24.0013 93.1298 26.8727 95.9999 30.4002 96H89.6009C93.1297 95.9998 95.9998 93.1283 96 89.6009V30.4002C95.9999 26.8713 93.1284 24.0013 89.6009 24.0011H30.4002Z" fill="white"/>
</svg>