<svg xmlns="http://www.w3.org/2000/svg" width="120" height="120" viewBox="0 0 120 120" fill="none">
  <path fill-rule="evenodd" clip-rule="evenodd" d="M60.5232 12L107.853 38.7457V80.9523L59.9985 108L12.1484 80.9523L12.1517 39.2813L27.5202 17.3139L74.7045 45.197L65.5968 60.377L98.2791 41.9036H87.3791L77.6607 36.2921L79.6546 32.8388L88.4482 37.9157H98.2779L59.475 15.989H50.4686L68.9707 26.6707L66.9768 30.1251L35.5852 12H60.5232ZM16.1385 40.5379L16.1363 78.6255L58.0035 102.293V78.76H61.9914V102.293L103.863 78.6255V43.3287L59.9996 68.1212L27.1167 49.6247L29.0721 46.1483L59.2843 63.1425L69.2187 46.5869L28.6698 22.6266L16.1385 40.5379Z" fill="white"/>
</svg>