<svg xmlns="http://www.w3.org/2000/svg" width="120" height="120" viewBox="0 0 120 120" fill="none">
  <path d="M94.7611 74.5246C91.8971 81.3054 87.1491 87.0734 81.0327 91.2083C74.7613 95.446 67.4307 97.6866 59.8335 97.6866C54.1717 97.6865 48.7255 96.4669 43.6449 94.0632L45.3497 90.4574C49.8914 92.6065 54.7657 93.696 59.8324 93.696C66.6301 93.696 73.1868 91.6914 78.7953 87.9013C84.2715 84.2013 88.5208 79.0379 91.0837 72.972H91.087L94.7611 74.5246Z" fill="white"/>
  <path d="M37.3905 69.6287L34.6294 72.5078L34.6272 72.5067L26.2412 64.4615C27.2475 71.7997 30.6104 78.5684 35.9669 83.8743L33.1595 86.7082C27.1091 80.7141 23.332 73.0507 22.2539 64.7471L14.8813 72.4472L12 69.6871L24.1869 56.9621L37.3905 69.6287Z" fill="white"/>
  <path d="M65.5807 22.3135C71.1357 23.1622 76.3335 25.1998 81.0272 28.365C86.8845 32.3156 91.5047 37.7932 94.3884 44.2051C96.4812 48.8552 97.6091 53.8658 97.7274 58.9282L105.116 51.2105L105.119 51.2127L108 53.9705L95.8142 66.6967L82.6106 54.0301L85.3717 51.151L93.7422 59.1807C93.6563 54.5956 92.6449 50.0526 90.7507 45.8404C88.171 40.1054 84.0374 35.2063 78.7964 31.6709C74.5955 28.8379 69.9466 27.0164 64.9786 26.2578L65.5807 22.3135Z" fill="white"/>
  <path d="M53.5173 26.4596C41.7009 28.6848 31.8665 37.1227 27.8511 48.4803L24.0888 47.1504C28.5755 34.4571 39.5687 25.0265 52.7785 22.5395L53.5173 26.4596Z" fill="white"/>
</svg>