<svg xmlns="http://www.w3.org/2000/svg" width="120" height="120" viewBox="0 0 120 120" fill="none">
  <path d="M59.9999 82.1487C67.1275 82.1487 72.9267 87.9467 72.9267 95.0743C72.9265 102.202 67.1275 108 59.9999 108C52.8724 108 47.0742 102.203 47.0742 95.0754H51.0743C51.0743 99.9974 55.0794 104.002 59.9999 104.002C64.9205 104.002 68.9266 99.9975 68.9266 95.0754C68.9265 90.1534 64.9219 86.1488 59.9999 86.1488C57.4938 86.1488 55.1723 87.161 53.4635 88.9968L50.5359 86.2715C52.9742 83.6511 56.4228 82.1488 59.9999 82.1487Z" fill="white"/>
  <path d="M72.0002 78.6019H47.9996V61.4019H51.9997V74.6018H68.0001V41.4003H72.0002V78.6019Z" fill="white"/>
  <path d="M72.0002 28.0015H68.0001V16.0012H51.9997V50.4022H47.9996V12H72.0002V28.0015Z" fill="white"/>
</svg>