<svg xmlns="http://www.w3.org/2000/svg" width="120" height="120" viewBox="0 0 120 120" fill="none">
  <path d="M60.0448 102.5L22.3644 64.8251L22.3644 64.8229L38.4263 48.7621L48.0742 58.9386L48.0742 45.4453L52.0663 45.4453L52.0663 68.9506L38.3501 54.4842L28.0104 64.8229L60.0459 96.854L73.1872 83.7172L76.0085 86.5407L60.0448 102.5Z" fill="white"/>
  <path d="M82.4721 80.0771L79.6552 77.2469L91.9921 64.9674L81.6578 54.567L68.0355 68.9539L68.0355 21.4931L52.0663 21.4931L52.0663 37.4613L48.0742 37.4613L48.0753 37.4601L48.0753 17.5L72.0275 17.5L72.0275 58.933L81.5883 48.8338L97.6348 64.9829L82.4721 80.0771Z" fill="white"/>
</svg>