<svg xmlns="http://www.w3.org/2000/svg" width="120" height="120" viewBox="0 0 120 120" fill="none">
  <path d="M59.9552 17.5L97.6356 55.1749L97.6356 55.1771L81.5737 71.2379L71.9258 61.0614L71.9258 74.5547L67.9337 74.5547L67.9337 51.0494L81.6499 65.5158L91.9896 55.1771L59.9541 23.146L46.8128 36.2828L43.9915 33.4593L59.9552 17.5Z" fill="white"/>
  <path d="M37.5279 39.9229L40.3448 42.7531L28.0079 55.0326L38.3422 65.433L51.9645 51.0461L51.9645 98.5069L67.9337 98.5069L67.9337 82.5387L71.9258 82.5387L71.9247 82.5398L71.9247 102.5L47.9725 102.5L47.9725 61.067L38.4117 71.1662L22.3652 55.0171L37.5279 39.9229Z" fill="white"/>
</svg>