<svg xmlns="http://www.w3.org/2000/svg" width="120" height="120" viewBox="0 0 120 120" fill="none">
  <path d="M17.5 60.0458L55.1749 22.3653L55.1771 22.3653L71.2379 38.4273L61.0615 48.0752L74.5547 48.0752L74.5547 52.0672L51.0494 52.0672L65.5158 38.3511L55.1771 28.0113L23.146 60.0469L36.2828 73.1881L33.4593 76.0095L17.5 60.0458Z" fill="white"/>
  <path d="M39.9229 82.4731L42.7531 79.6562L55.0326 91.9931L65.433 81.6588L51.0461 68.0365L98.5069 68.0365L98.5069 52.0672L82.5387 52.0672L82.5388 48.0752L82.5399 48.0763L102.5 48.0763L102.5 72.0285L61.067 72.0285L71.1662 81.5893L55.0171 97.6357L39.9229 82.4731Z" fill="white"/>
</svg>