<svg xmlns="http://www.w3.org/2000/svg" width="120" height="120" viewBox="0 0 120 120" fill="none">
  <path d="M47.8397 51.4891L39.6044 60L66.9564 88.2706L52.7868 101.86L37.5757 86.2486L40.4433 83.4552L52.8831 96.2215L61.2822 88.1644L34.0319 60L44.961 48.7057L47.8397 51.4891Z" fill="white"/>
  <path d="M73.8791 44.3529L58.6337 60L93.9256 96.2215L102.326 88.1644L93.0568 78.5844L95.9343 75.7999L107.999 88.2706L93.8293 101.86L53.0425 60L71.0115 41.5594L73.8791 44.3529Z" fill="white"/>
  <path d="M66.9564 31.7305L55.3744 43.6999L52.4968 40.9164L61.2822 31.8356L52.8831 23.7796L17.5913 60L33.3203 76.1452L30.4527 78.9386L12 60L52.7868 18.1396L66.9564 31.7305Z" fill="white"/>
  <path d="M108 31.7305L80.648 60L88.3985 68.0106L85.5209 70.7952L75.0755 60L102.327 31.8356L93.9256 23.7796L81.0021 37.0428L78.1345 34.2483L93.8304 18.1396L108 31.7305Z" fill="white"/>
</svg>