<svg xmlns="http://www.w3.org/2000/svg" width="120" height="120" viewBox="0 0 120 120" fill="none">
  <path d="M85.3117 69.6693C84.5917 70.9893 83.8023 72.2557 82.951 73.467L108 98.5149L98.5149 108L84.3095 93.7934L87.1393 90.9647L98.5149 102.34L102.339 98.5172L80.4652 76.6431C79.2749 78.0099 77.9953 79.2873 76.6398 80.4663L82.4333 86.2598L79.6034 89.0896L73.4659 82.951C67.0063 87.4904 59.2051 90.0475 51.0244 90.0476V86.0452C63.8589 86.045 75.6495 79.0357 81.7972 67.7543L85.3117 69.6693Z" fill="white"/>
  <path d="M51.0244 12C61.4473 12.0001 71.2474 16.0596 78.6178 23.4299C85.9882 30.8003 90.0476 40.6012 90.0476 51.0244C90.0476 53.0857 89.8858 55.1556 89.5653 57.1774L85.6115 56.5501C85.8995 54.736 86.0452 52.8766 86.0452 51.0244C86.0452 41.6701 82.4019 32.8744 75.7869 26.2608C69.1718 19.6458 60.3778 16.0024 51.0222 16.0024C41.6667 16.0025 32.8732 19.6459 26.2597 26.2608C19.6446 32.8758 16.0013 41.6701 16.0013 51.0244C16.0015 62.7703 21.8469 73.6749 31.6372 80.1953L29.4191 83.5262C18.5119 76.2632 12.0001 64.1117 12 51.0244C12 40.6012 16.0594 30.8003 23.4299 23.4299C30.8003 16.0594 40.6012 12 51.0244 12Z" fill="white"/>
  <path d="M27.8682 51.0222C27.8682 57.263 30.2671 63.1202 34.623 67.5143C38.9845 71.9139 44.8093 74.3365 51.0233 74.3366C57.2373 74.3366 63.0238 71.9152 67.3472 67.5198C71.6608 63.1342 74.0368 57.2743 74.0368 51.0222H78.0403C78.0403 58.3319 75.2551 65.1868 70.2003 70.3264C65.1172 75.4926 58.3075 78.339 51.0233 78.339C43.7334 78.3389 36.8993 75.4954 31.781 70.3319C26.6769 65.1825 23.8657 58.3261 23.8657 51.0222H27.8682Z" fill="white"/>
  <path d="M29.6968 41.5858L29.6946 41.5869V41.5847L29.6968 41.5858Z" fill="white"/>
  <path d="M51.0222 23.7053C61.8222 23.7054 71.6299 30.0873 76.007 39.964L72.3475 41.5858C68.6115 33.1551 60.2396 27.709 51.0211 27.7089C41.8032 27.7089 33.4312 33.1551 29.6946 41.5847L26.0373 39.964C30.4144 30.0873 40.222 23.7053 51.0222 23.7053Z" fill="white"/>
</svg>