<svg xmlns="http://www.w3.org/2000/svg" width="120" height="120" viewBox="0 0 120 120" fill="none">
  <path d="M59.7984 96.3584L56.4314 98.5231L43.98 79.1508L47.347 76.9862L59.7984 96.3584Z" fill="white"/>
  <path d="M89.0403 78.7504V78.7526L85.1867 76.5471C78.2239 72.5645 66.4902 68.5171 50.1377 71.8517L41.4935 73.6402L35.5681 45.0807L44.2223 43.2822C49.4543 42.1782 54.3241 40.4763 58.6878 38.2273L60.5218 41.7857C55.839 44.1984 50.6307 46.0187 45.043 47.1989L40.2989 48.1845L44.5994 68.9106L49.3335 67.9317C64.2417 64.8908 75.6419 67.5956 83.3727 71.125L74.9918 30.7313C72.74 33.23 70.2029 35.512 67.4105 37.5449L65.0546 34.3095C68.7095 31.6484 71.8878 28.5278 74.4995 25.0338L77.1597 21.4766L89.0403 78.7504Z" fill="white"/>
  <path d="M37.4529 74.4355L33.534 75.2485L28.321 50.1102L22.3292 51.3037C18.0502 52.1987 15.2871 56.4045 16.1638 60.6878L17.4038 66.3809C18.303 70.6641 22.5348 73.4337 26.8377 72.5529L27.6396 76.4741C26.8336 76.6392 26.0271 76.7163 25.2338 76.7163C19.6807 76.7154 14.6761 72.8332 13.4904 67.2094L12.2471 61.5052C10.9186 55.0591 15.0799 48.7237 21.5218 47.3825L21.5384 47.3803L31.4324 45.4093L37.4529 74.4355Z" fill="white"/>
  <path d="M107.233 56.0345L106.153 59.8881L96.5098 57.1848L97.5905 53.3311L107.233 56.0345Z" fill="white"/>
  <path d="M85.6877 38.4253C89.7874 39.5364 92.9133 42.9573 93.6517 47.1403C94.3885 51.3219 92.6202 55.6051 89.1487 58.0531L89.1476 58.052L86.8425 54.7801C89.0531 53.2229 90.1782 50.4959 89.7095 47.8349C89.2408 45.1738 87.2505 42.9952 84.6403 42.2878L85.6877 38.4253Z" fill="white"/>
  <path d="M108 46.6392L97.9002 48.4212L97.2045 44.479L107.305 42.6982L108 46.6392Z" fill="white"/>
  <path d="M103.237 33.9113L95.4524 40.0048L92.9847 36.8536L100.771 30.7601L103.237 33.9113Z" fill="white"/>
</svg>