<svg xmlns="http://www.w3.org/2000/svg" width="120" height="120" viewBox="0 0 120 120" fill="none">
  <path d="M21.8894 80.6608L16.3736 96.2663C16.1549 96.8857 16.043 97.5366 16.043 98.2011C16.0433 101.398 18.6456 104 21.843 104H71.9972V108H21.843C16.4399 108 12.043 103.603 12.043 98.1989C12.043 97.0788 12.2303 95.9797 12.6013 94.933L18.1182 79.3275L21.8894 80.6608Z" fill="white"/>
  <path d="M60.0004 12C70.4384 12.0001 78.9315 20.4942 78.9315 30.9322C78.9315 34.9525 77.6645 38.8024 75.3616 41.9915L82.3434 41.9948C86.0729 41.9948 89.4603 44.3403 90.7714 47.8313L90.7857 47.8689L107.397 94.9274C107.767 95.9744 107.956 97.0741 107.956 98.1945C107.956 103.598 103.56 107.994 98.1556 107.994L98.1523 107.999H81.9985V103.999H98.1523C101.35 103.999 103.952 101.396 103.952 98.1989C103.952 97.5343 103.84 96.8836 103.622 96.2641L87.0179 49.2232C86.2855 47.2928 84.407 45.9971 82.3412 45.9971L65.2111 45.9871L69.4942 42.4481C72.9485 39.5934 74.9315 35.3967 74.9315 30.9333C74.9314 22.6997 68.2329 16.0014 59.9993 16.0012C51.7655 16.0012 45.0661 22.6995 45.066 30.9333C45.066 35.3967 47.0492 39.5945 50.5078 42.4492L54.7964 45.9904L37.6563 45.996C35.5891 45.996 33.7123 47.2917 32.9785 49.2221L24.9619 71.931L21.1907 70.5988L29.2284 47.8313C30.5394 44.3405 33.9256 41.9949 37.6563 41.9948L44.6404 41.9926C42.336 38.8035 41.0682 34.9539 41.0682 30.9322C41.0682 20.4928 49.5623 12 60.0004 12Z" fill="white"/>
  <path d="M66.7976 77.9986H75.9155L59.9971 99.9855L44.082 77.9986H53.1988V67.9995H57.1977V81.9997H51.9141L59.9971 93.164L68.0801 81.9997H62.7987V55.9994H57.1977V61.9995H53.1988V51.9994H66.7976V77.9986Z" fill="white"/>
  <path fill-rule="evenodd" clip-rule="evenodd" d="M59.9971 21.3368C65.2902 21.3368 69.597 25.6435 69.597 30.9366C69.597 36.2297 65.2902 40.5365 59.9971 40.5365C54.704 40.5365 50.3972 36.2297 50.3972 30.9366C50.3972 25.6435 54.704 21.3368 59.9971 21.3368ZM59.9971 25.3368C56.9096 25.3368 54.3963 27.8489 54.3961 30.9378C54.3961 34.0267 56.9081 36.5376 59.9971 36.5376C63.086 36.5376 65.598 34.0253 65.598 30.9378C65.5979 27.8504 63.0859 25.3368 59.9971 25.3368Z" fill="white"/>
</svg>