<svg xmlns="http://www.w3.org/2000/svg" width="60" height="70" viewBox="0 0 60 70" fill="none">
  <path d="M48.2015 45.9247C54.7078 45.9249 60 51.209 60 57.7048C59.9998 64.2005 54.7077 69.4847 48.2015 69.4849L48.1993 69.486C41.693 69.4858 36.4008 64.2017 36.4008 57.7059H40.4004C40.4004 61.9999 43.9005 65.494 48.2015 65.494C52.5023 65.4938 56.0015 61.9998 56.0015 57.7059C56.0015 53.412 52.5023 49.918 48.2015 49.9178C46.0115 49.9178 43.9818 50.8005 42.4889 52.4023L39.5607 49.6819C41.7859 47.2939 44.9363 45.9247 48.2015 45.9247Z" fill="white"/>
  <path d="M42.3493 30.158L25.2722 66.6908H4.85986L11.238 53.044L14.8631 54.7333L11.1406 62.6967H22.7259L38.7242 28.4709L42.3493 30.158Z" fill="white"/>
  <path d="M46.7125 20.8224L43.0884 19.1343L48.8583 6.78931H37.2719L20.0779 43.5743L16.4538 41.8851L34.7257 2.79515H55.1391L46.7125 20.8224Z" fill="white"/>
  <path d="M11.7996 0C18.3059 9.06668e-05 23.599 5.28432 23.5992 11.7801H19.5985C19.5984 7.48638 16.0992 3.99334 11.7985 3.99307C7.49763 3.99307 3.99754 7.48621 3.9974 11.7801C3.9974 16.0741 7.49755 19.5682 11.7985 19.5682C13.9882 19.5681 16.0172 18.6863 17.51 17.0847L20.4383 19.8052C18.2131 22.193 15.0635 23.5622 11.7985 23.5624L11.7996 23.5602C5.29311 23.5602 0 18.2761 0 11.7801C0.000140978 5.28426 5.2932 0 11.7996 0Z" fill="white"/>
</svg>