<svg xmlns="http://www.w3.org/2000/svg" width="120" height="120" viewBox="0 0 120 120" fill="none">
  <path d="M58.7056 82.149C65.833 82.149 71.632 87.9471 71.6322 95.0745C71.6322 98.3523 70.4027 101.479 68.1706 103.878L65.2418 101.154C66.7828 99.4975 67.631 97.3393 67.631 95.0745C67.6309 90.1526 63.6263 86.1479 58.7045 86.1479C53.7826 86.1479 49.7792 90.1527 49.779 95.0745C49.779 99.9965 53.7839 104.001 58.7045 104.001C59.2547 104.001 59.8049 103.951 60.3396 103.852L61.0682 107.784C60.2935 107.928 59.4975 108 58.7045 108C51.5775 107.999 45.78 102.202 45.78 95.0745C45.7802 87.9472 51.5783 82.1491 58.7056 82.149Z" fill="white"/>
  <path d="M60.7045 12C68.5771 12 75.988 14.8069 81.5704 19.9039L81.5737 19.9061C87.2068 25.0482 90.3089 31.9014 90.309 39.201C90.309 45.1911 88.2329 50.8708 84.3045 55.629C80.8473 59.8158 76.0617 63.0378 70.7079 64.8088V78.0019H46.7076V65.2013H50.7088V74.0007H66.709V61.8038L68.1772 61.398C73.336 59.9742 77.9688 57.0211 81.2199 53.0828C84.5488 49.0513 86.3079 44.25 86.3079 39.201C86.3077 26.4079 74.8231 16.0012 60.7078 16.0012C49.8902 16.0012 38.5167 23.9801 34.7871 26.8404L42.5561 41.1037C46.1517 38.0373 54.073 32.0013 60.7067 32.0013C65.9503 32.0014 69.2065 34.7225 69.2065 39.1026C69.2065 41.668 68.0313 43.8062 65.7128 45.4587C63.9011 46.7482 61.5657 47.6395 59.3081 48.5001C53.956 50.542 50.7057 52.0664 50.7055 56.0016V58.0016H46.7054V56.0016C46.7057 49.0268 52.9022 46.6637 57.8819 44.7643C62.4227 43.0316 65.2053 41.8316 65.2054 39.1026C65.2054 37.751 64.6341 37.1763 64.2037 36.8615C63.4346 36.2999 62.2243 36.0025 60.7045 36.0025C57.8555 36.0027 53.9961 37.6434 49.5457 40.7477C46.0379 43.1947 43.4248 45.6871 43.3908 45.7207L41.5025 47.5316L29.6914 25.8509L30.9286 24.7984C31.5424 24.2749 46.1362 12.0003 60.7045 12Z" fill="white"/>
</svg>