<svg xmlns="http://www.w3.org/2000/svg" width="89" height="45" viewBox="0 0 89 45" fill="none">
  <path d="M43.5821 5.22949C38.4197 5.22949 33.7849 7.52946 30.6304 11.159L31.8386 12.0831C34.7134 8.81752 38.9111 6.7528 43.5821 6.7528C47.7862 6.7528 51.7117 8.39477 54.6732 11.3763L52.82 13.2357H57.3974V8.64303L55.7461 10.3C52.4982 7.03037 48.1931 5.22949 43.5822 5.22949H43.5821Z" fill="#23A7E6"/>
  <path d="M43.584 0.500089C36.8958 0.500089 30.9019 3.52979 26.8809 8.29065L28.089 9.21477C31.8312 4.81821 37.3871 2.02339 43.5839 2.02339C49.0122 2.02339 54.1203 4.14165 57.9671 7.98806L59.0372 6.90838C54.9042 2.77602 49.4161 0.5 43.5839 0.5L43.584 0.500089Z" fill="#23A7E6"/>
  <path d="M6.35372 29.0324C3.52445 29.0324 0.836914 26.6796 0.836914 23.0514C0.836914 19.4232 3.54505 17.0474 6.35372 17.0474C8.06796 17.0474 9.293 17.5879 10.2879 18.4698V17.3946H13.0692V28.685H10.2879V27.639C9.26206 28.5149 8.03289 29.0324 6.35372 29.0324ZM6.88394 19.4474C4.8815 19.4474 3.52594 20.925 3.52594 23.0514C3.52594 25.2005 4.89386 26.6324 6.88394 26.6324C8.48869 26.6324 10.2879 25.3683 10.2879 23.0514C10.2879 20.7697 8.53199 19.4474 6.88394 19.4474Z" fill="#1F2937"/>
  <path d="M20.4597 29.0325C17.5032 29.0325 14.9429 26.5554 14.9429 23.0516C14.9429 19.3965 17.6889 17.0475 20.4597 17.0475C21.9426 17.0475 23.2821 17.4576 24.3939 18.47V12.2783H27.1751V28.6852H24.3939V27.6392C23.2491 28.6351 21.928 29.0325 20.4597 29.0325ZM20.9899 19.4476C18.8438 19.4476 17.6319 21.0786 17.6319 23.0516C17.6319 25.6357 19.4377 26.6326 20.9899 26.6326C22.7624 26.6326 24.3939 25.2131 24.3939 23.0516C24.3939 20.8465 22.7211 19.4476 20.9899 19.4476Z" fill="#1F2937"/>
  <path d="M56.9703 17.0474C59.9268 17.0474 62.4872 19.5245 62.4872 23.0283C62.4872 26.6834 59.7412 29.0324 56.9703 29.0324C55.4874 29.0324 54.1479 28.6223 53.0361 27.6099V32.621H50.2549V17.3947H53.0361V18.4407C54.181 17.4448 55.5021 17.0474 56.9703 17.0474ZM56.4401 26.6322C58.5862 26.6322 59.7981 25.0012 59.7981 23.0282C59.7981 20.4441 57.9923 19.4472 56.4401 19.4472C54.6676 19.4472 53.0361 20.8667 53.0361 23.0282C53.0361 25.2333 54.7089 26.6322 56.4401 26.6322Z" fill="#1F2937"/>
  <path d="M34.8197 29.0328C31.5402 29.0328 29.0493 26.564 29.0493 23.0519C29.0493 21.3059 29.6142 19.8532 30.7284 18.7342C31.8426 17.6152 33.2346 17.0479 34.8658 17.0479C38.3627 17.0479 40.5571 19.9768 40.5672 22.8252V23.731H31.7807C32.1053 25.8101 33.5532 26.6794 34.8197 26.6794C36.1344 26.6794 37.117 26.1708 37.7417 25.1676L40.2145 25.6939C38.8577 28.735 36.0796 29.0328 34.8197 29.0328ZM34.8658 19.4479C33.6429 19.4479 32.1982 20.1767 31.8631 21.8404H37.7551C37.3048 19.8297 35.7744 19.4479 34.8658 19.4479Z" fill="#1F2937"/>
  <path d="M82.7391 29.0328C79.4597 29.0328 76.9688 26.564 76.9688 23.0519C76.9688 21.3059 77.5337 19.8532 78.6478 18.7342C79.762 17.6152 81.154 17.0479 82.7852 17.0479C86.2822 17.0479 88.4766 19.9768 88.4866 22.8252V23.731H79.7001C80.0248 25.8101 81.4726 26.6794 82.7391 26.6794C84.0539 26.6794 85.0364 26.1708 85.6611 25.1676L88.1339 25.6939C86.7772 28.735 83.9991 29.0328 82.7391 29.0328ZM82.7852 19.4479C81.5623 19.4479 80.1176 20.1767 79.7825 21.8404H85.6746C85.2242 19.8297 83.6939 19.4479 82.7852 19.4479Z" fill="#1F2937"/>
  <path d="M46.3676 29.0324C45.2562 29.0324 44.3529 28.6909 43.6823 28.0174C43.0118 27.3439 42.6719 26.4445 42.6719 25.3436V12.2783H45.4531V25.1585C45.4531 25.5368 45.5927 25.8471 45.8683 26.0807C46.1374 26.3087 46.4838 26.4243 46.8978 26.4243C47.2625 26.4243 47.7099 26.3301 48.2296 26.1445L48.708 28.4628C47.8728 28.8409 47.0858 29.0324 46.3676 29.0324Z" fill="#1F2937"/>
  <path d="M72.5902 28.6852V22.4264C72.5902 20.8382 71.7077 19.5864 70.1312 19.5864C68.1355 19.5864 67.1421 20.9625 67.1421 23.6999V28.6852H64.3608V12.2783H67.1421V18.6224C68.185 17.4824 69.4442 17.0475 70.8919 17.0475C73.4855 17.0475 75.3714 18.8497 75.3714 21.7781V28.6852H72.5902Z" fill="#1F2937"/>
  <path d="M54.5694 33.7357C51.6198 36.6453 47.7184 38.2476 43.5836 38.2476C38.3879 38.2476 33.778 35.6932 30.9238 31.772L29.6978 32.6725C32.8284 36.972 37.8861 39.771 43.5836 39.771C48.1185 39.771 52.3972 38.0136 55.6322 34.8224L54.5694 33.7357Z" fill="#23A7E6"/>
  <path d="M58.0006 36.9794C54.15 40.8469 49.0305 42.9769 43.5847 42.9769C36.8306 42.9769 30.8391 39.6566 27.1272 34.5605L25.9009 35.4613C29.8891 40.9356 36.3288 44.5003 43.5847 44.5003C49.4356 44.5003 54.9362 42.2119 59.0731 38.0566L58.0007 36.9795L58.0006 36.9794Z" fill="#23A7E6"/>
</svg>