<svg width="117" height="51" viewBox="0 0 117 51" fill="none" xmlns="http://www.w3.org/2000/svg">
<path d="M103.178 2.55176C94.6803 2.68607 89.6805 12.3845 94.6055 19.3797C99.4973 26.328 110.116 25.0852 113.299 17.2416C116.178 10.1464 110.777 2.43178 103.178 2.55176ZM102.792 0.719545C112.839 0.225403 119.364 11.3275 114.02 19.8911C109.066 27.8296 97.3583 27.714 92.5785 19.669C87.7249 11.4997 93.3659 1.1832 102.792 0.719545Z" fill="#1F2937"/>
<path d="M68.0017 0.850098V25.6811H85.7643V23.8006H69.8359V2.6822H85.7643V0.850098H68.0017Z" fill="#1F2937"/>
<path d="M12.4348 0.719886C15.8068 0.554056 19.2321 1.83647 21.6644 4.15267C21.7511 4.23512 21.9071 4.33605 21.8343 4.46551L20.5779 5.67355C19.7945 4.97005 18.9801 4.30973 18.0447 3.81443C11.8284 0.522299 4.14498 4.02218 2.58264 10.8397C0.845003 18.4221 7.48446 25.2108 15.1094 23.7386C17.1813 23.3384 19.0771 22.2698 20.5779 20.8123L21.8534 22.1308C20.0643 23.9457 17.6364 25.2043 15.1094 25.6189C6.32838 27.0606 -1.11494 19.2937 0.739107 10.5892C1.91863 5.05203 6.78326 0.997849 12.4347 0.719771" fill="#1F2937"/>
<path d="M19.6373 6.68383V11.409H14.907L16.5929 9.69073C15.5098 8.40415 13.6269 7.92421 12.0009 8.24098C9.87962 8.6544 8.0907 10.5693 7.91425 12.7412C7.52484 17.5352 13.1951 20.2208 16.6204 16.8584L17.8958 18.1768C15.0401 21.1158 10.1097 20.7897 7.57127 17.6035C5.07527 14.4704 5.72819 9.8554 9.00288 7.5608C11.7696 5.62199 15.5403 5.94672 17.9301 8.31974L19.6369 6.68395L19.6373 6.68383Z" fill="#1F2937"/>
<path d="M39.5228 5.76782V7.60016H47.294V25.6086L47.3663 25.6809H49.104L49.1763 25.6086V5.76782H39.5228Z" fill="#1F2937"/>
<path d="M52.7971 5.76782V25.6086L52.8696 25.6809H54.6072L54.6796 25.6086V7.60016H62.4507V5.76782H52.7971Z" fill="#1F2937"/>
<path d="M85.7639 14.9292V16.7614H75.4104L75.338 16.8337V18.8829H85.7639V20.7634H73.5038V14.9292H85.7639Z" fill="#1F2937"/>
<path d="M85.7639 5.76782V7.60004H75.338V9.72166H85.7639V11.602H73.5038V5.76782H85.7639Z" fill="#1F2937"/>
<path d="M34.0211 0.802246H32.0905V25.6814H34.0211V0.802246Z" fill="#1F2937"/>
<path d="M28.4694 0.802246H26.5869V25.6814H28.4694V0.802246Z" fill="#1F2937"/>
<path d="M62.4996 0.80127H39.4757V2.72991H62.4996V0.80127Z" fill="#1F2937"/>
<path d="M103.082 8.14481C98.4544 8.44298 96.5469 14.1823 100.125 17.1937C103.186 19.7692 107.903 17.8454 108.445 13.935C108.878 10.8039 106.243 7.94121 103.082 8.14481ZM102.793 6.31282C108.364 5.87584 112.189 11.8125 109.424 16.6972C106.771 21.3834 99.9124 21.3504 97.2919 16.6489C94.8343 12.2399 97.766 6.70707 102.793 6.31282Z" fill="#1F2937"/>
<path d="M52.3569 35.3352V36.5832H54.3695V37.7429H52.3569V39.0961H54.6334V40.3001H50.8545V34.1316H54.6334V35.3352H52.3569Z" fill="#23A7E6"/>
<path d="M63.7225 34.1306V40.2991H62.2201V36.5996L60.8402 40.2991H59.6279L58.239 36.5908V40.2991H56.7366V34.1306H58.5117L60.2427 38.4011L61.9563 34.1306H63.7225Z" fill="#23A7E6"/>
<path d="M70.6904 38.6218C70.6904 39.5586 70.0522 40.3001 68.6431 40.3001H65.7698V34.1316H68.5462C69.7967 34.1316 70.5499 34.7356 70.5499 35.7307C70.5499 36.0997 70.4353 36.8469 69.5044 37.1369C70.2832 37.2953 70.6904 37.9746 70.6904 38.6219V38.6218ZM67.2723 36.6271H68.2562C68.7697 36.6271 69.0213 36.3931 69.0213 35.9856C69.0213 35.548 68.7372 35.3351 68.2562 35.3351H67.2723V36.627V36.6271ZM69.17 38.4196C69.17 38.0261 68.9082 37.7256 68.362 37.7256H67.2722V39.0875H68.3793C68.8539 39.0875 69.17 38.8792 69.17 38.4196Z" fill="#23A7E6"/>
<path d="M76.3587 39.2103H74.056L73.687 40.3001H72.1139L74.346 34.1316H76.086L78.3181 40.3001H76.7277L76.3586 39.2103H76.3587ZM75.9718 38.0505L75.2074 35.7921L74.4513 38.0505H75.9718Z" fill="#23A7E6"/>
<path d="M81.3155 39.1401H83.2839V40.3001H79.8131V34.1316H81.3155V39.1401Z" fill="#23A7E6"/>
<path d="M86.622 39.1391H88.5904V40.2991H85.1196V34.1306H86.622V39.1391Z" fill="#23A7E6"/>
<path d="M94.3083 39.2103H92.0056L91.6366 40.3001H90.0635L92.2956 34.1316H94.0356L96.2677 40.3001H94.6773L94.3083 39.2103ZM93.9213 38.0505L93.157 35.7921L92.4009 38.0505H93.9213Z" fill="#23A7E6"/>
<path d="M107.14 35.3352V36.5832H109.152V37.7429H107.14V39.0961H109.416V40.3001H105.638V34.1316H109.416V35.3352H107.14Z" fill="#23A7E6"/>
<path d="M101.807 36.0824C101.696 35.8773 101.38 35.4496 100.594 35.4496C99.5973 35.4496 98.9861 36.1622 98.9861 37.2071C98.9861 38.3468 99.6381 39.0172 100.718 39.0172C101.749 39.0172 102.094 38.2792 102.211 37.9274H100.304V36.8203H103.574V38.2175C103.245 39.3114 102.21 40.3441 100.603 40.3441C98.7455 40.3441 97.4574 39.0505 97.4574 37.2071C97.4574 35.3497 98.7605 34.061 100.594 34.061C102.059 34.061 103.135 34.8062 103.468 36.0823H101.807V36.0824Z" fill="#23A7E6"/>
<path d="M34.184 46.2316C34.0724 46.0265 33.7564 45.5987 32.971 45.5987C31.9738 45.5987 31.3627 46.3114 31.3627 47.3562C31.3627 48.4959 32.0147 49.1664 33.0942 49.1664C34.1259 49.1664 34.4709 48.4284 34.5876 48.0766H32.6809V46.9695H35.9502V48.3667C35.6217 49.4605 34.5865 50.4933 32.98 50.4933C31.1221 50.4933 29.834 49.1997 29.834 47.3562C29.834 45.4989 31.1371 44.2102 32.971 44.2102C34.4357 44.2102 35.5117 44.9554 35.8443 46.2315H34.184V46.2316Z" fill="#23A7E6"/>
<path d="M7.39398 44.2808V50.4493H5.89088V46.7497L4.51169 50.4493H3.29868L1.91049 46.741V50.4493H0.408081V44.2808H2.18268L3.91419 48.5512L5.62782 44.2808H7.39398Z" fill="#23A7E6"/>
<path d="M10.9749 45.4841V46.7321H12.9875V47.8918H10.9749V49.245H13.2514V50.449H9.47253V44.2805H13.2514V45.4841H10.9749ZM12.3458 43.0412L10.2286 43.9288V42.892L12.3458 41.8726V43.0412Z" fill="#23A7E6"/>
<path d="M20.8769 50.4493H19.3738L16.8606 46.6444V50.4493H15.3582V44.2808H16.8606L19.3738 48.1033V44.2808H20.8769V50.4493Z" fill="#23A7E6"/>
<path d="M26.6983 49.3595H24.3961L24.0271 50.4493H22.454L24.6861 44.2808H26.4261L28.6576 50.4493H27.0672L26.6981 49.3595H26.6983ZM26.3119 48.1997L25.5468 45.9413L24.7914 48.1997H26.3119Z" fill="#23A7E6"/>
<path d="M39.5412 45.4837V46.7317H41.5532V47.8913H39.5412V49.2446H41.817V50.4486H38.0388V44.28H41.817V45.4837H39.5412Z" fill="#23A7E6"/>
<path d="M61.6482 45.4844V46.7324H63.6608V47.8921H61.6482V49.2453H63.9246V50.4493H60.1458V44.2808H63.9246V45.4844H61.6482Z" fill="#23A7E6"/>
<path d="M70.1786 44.28V45.4837H68.544V50.4486H67.0416V45.4837H65.407V44.28H70.1786Z" fill="#23A7E6"/>
<path d="M85.0199 49.3595H82.7178L82.3487 50.4493H80.7756L83.0078 44.2808H84.7477L86.9793 50.4493H85.3889L85.0199 49.3595ZM84.6335 48.1997L83.8684 45.9413L83.1131 48.1997H84.6335Z" fill="#23A7E6"/>
<path d="M96.5255 44.2808V50.4493H95.0231V44.2808H96.5255Z" fill="#23A7E6"/>
<path d="M100.125 45.4837V46.7317H102.137V47.8913H100.125V49.2446H102.401V50.4486H98.6223V44.28H102.401V45.4837H100.125Z" fill="#23A7E6"/>
<path d="M111.307 38.4545H112.907C112.969 39.087 113.455 39.1575 113.671 39.1575C113.959 39.1575 114.392 39.0543 114.392 38.5777C114.392 38.0354 113.607 37.8503 113.223 37.7341C112.076 37.3874 111.325 36.992 111.325 35.88C111.325 34.6077 112.39 34.0435 113.575 34.0435C114.997 34.0435 115.842 34.787 115.886 35.8886H114.26C114.23 35.4351 113.882 35.2471 113.522 35.2471C113.207 35.2471 112.916 35.4065 112.916 35.8096C112.916 36.1727 113.161 36.3277 114.075 36.6357C114.474 36.77 114.797 36.8991 115.046 37.0223C115.416 37.2053 115.965 37.6101 115.965 38.4634C115.965 39.5556 115.088 40.3614 113.715 40.3614C112.244 40.3614 111.331 39.576 111.307 38.4545Z" fill="#23A7E6"/>
<path d="M111.307 48.6037H112.907C112.969 49.2361 113.455 49.3067 113.671 49.3067C113.959 49.3067 114.392 49.2035 114.392 48.7269C114.392 48.1846 113.607 47.9995 113.223 47.8833C112.076 47.5366 111.325 47.1412 111.325 46.0291C111.325 44.7569 112.39 44.1926 113.575 44.1926C114.997 44.1926 115.842 44.9362 115.886 46.0378H114.26C114.23 45.5843 113.882 45.3963 113.522 45.3963C113.207 45.3963 112.916 45.5556 112.916 45.9588C112.916 46.3219 113.161 46.4768 114.075 46.7848C114.474 46.9191 114.797 47.0482 115.046 47.1715C115.416 47.3545 115.965 47.7593 115.965 48.6125C115.965 49.7048 115.088 50.5106 113.715 50.5106C112.244 50.5106 111.331 49.7251 111.307 48.6035V48.6037Z" fill="#23A7E6"/>
<path d="M50.6437 48.6037H52.243C52.3054 49.2361 52.791 49.3067 53.0073 49.3067C53.2958 49.3067 53.7281 49.2035 53.7281 48.7269C53.7281 48.1846 52.9436 47.9995 52.5594 47.8833C51.4128 47.5366 50.6616 47.1412 50.6616 46.0291C50.6616 44.7569 51.7267 44.1926 52.911 44.1926C54.3331 44.1926 55.1787 44.9362 55.2221 46.0378H53.5965C53.5668 45.5843 53.2184 45.3963 52.8585 45.3963C52.5439 45.3963 52.252 45.5556 52.252 45.9588C52.252 46.3219 52.497 46.4768 53.4116 46.7848C53.8104 46.9191 54.1337 47.0482 54.3827 47.1715C54.7523 47.3545 55.3011 47.7593 55.3011 48.6125C55.3011 49.7048 54.4249 50.5106 53.0517 50.5106C51.58 50.5106 50.667 49.7251 50.6437 48.6035V48.6037Z" fill="#23A7E6"/>
<path d="M47.0872 50.4493L45.8042 48.1205H45.4442V50.4493H43.9418V44.2808H46.4634C47.9103 44.2808 48.7309 45.0717 48.7309 46.2225C48.7309 46.6325 48.5787 47.6421 47.36 48.0063L48.7835 50.4493H47.0872ZM45.4442 47.0574H46.3754C46.9212 47.0574 47.2014 46.778 47.2014 46.284C47.2014 45.8052 46.9157 45.5283 46.3754 45.5283H45.4442V47.0574Z" fill="#23A7E6"/>
<path d="M107.669 50.4493L106.386 48.1205H106.026V50.4493H104.524V44.2808H107.045C108.492 44.2808 109.313 45.0717 109.313 46.2225C109.313 46.6325 109.161 47.6421 107.942 48.0063L109.365 50.4493H107.669ZM106.026 47.0574H106.957C107.503 47.0574 107.783 46.778 107.783 46.284C107.783 45.8052 107.498 45.5283 106.957 45.5283H106.026V47.0574Z" fill="#23A7E6"/>
<path d="M90.8743 48.2348H89.9423V50.4493H88.4399V44.2808H90.8743C92.5542 44.2808 93.141 45.2945 93.141 46.2665C93.141 47.2781 92.4564 48.2348 90.8743 48.2348ZM91.6123 46.2665C91.6123 46.0206 91.5531 45.4934 90.7601 45.4934H89.9425V47.0398H90.7601C91.5478 47.0398 91.6123 46.5125 91.6123 46.2665Z" fill="#23A7E6"/>
<path d="M77.2443 48.2348H76.3123V50.4493H74.8099V44.2808H77.2443C78.9242 44.2808 79.511 45.2945 79.511 46.2665C79.511 47.2781 78.8264 48.2348 77.2443 48.2348ZM77.9823 46.2665C77.9823 46.0206 77.9231 45.4934 77.1301 45.4934H76.3125V47.0398H77.1301C77.9178 47.0398 77.9823 46.5125 77.9823 46.2665Z" fill="#23A7E6"/>
</svg>
