<svg xmlns="http://www.w3.org/2000/svg" width="130" height="51" viewBox="0 0 130 51" fill="none">
  <path d="M115.123 24.7117C105.599 24.8608 99.9962 35.6218 105.516 43.3836C110.998 51.0931 122.898 49.7141 126.465 41.0112C129.692 33.1385 123.639 24.5786 115.123 24.7117ZM114.69 22.6786C125.95 22.1303 133.262 34.4489 127.273 43.9508C121.722 52.7591 108.601 52.6309 103.244 43.7044C97.8047 34.6399 104.126 23.1931 114.69 22.6786Z" fill="#1F2937"/>
  <path d="M75.7031 22.825V50.3768H95.6093V48.2904H77.7587V24.858H95.6093V22.825H75.7031Z" fill="#1F2937"/>
  <path d="M13.4273 22.6806C17.2063 22.4966 21.0449 23.9196 23.7707 26.4895C23.8679 26.581 24.0427 26.693 23.9612 26.8367L22.5531 28.1771C21.6752 27.3965 20.7625 26.6638 19.7143 26.1142C12.7477 22.4614 4.13712 26.3447 2.38623 33.9093C0.438897 42.3224 7.87959 49.855 16.4247 48.2215C18.7466 47.7775 20.8712 46.5917 22.5531 44.9745L23.9826 46.4376C21.9775 48.4513 19.2566 49.8477 16.4247 50.3079C6.584 51.9075 -1.75757 43.2896 0.320221 33.6313C1.64209 27.4874 7.09377 22.989 13.4272 22.6805" fill="#1F2937"/>
  <path d="M21.4992 29.3002V34.543H16.198L18.0873 32.6365C16.8735 31.209 14.7634 30.6764 12.9412 31.0279C10.564 31.4866 8.55916 33.6114 8.36141 36.0212C7.92502 41.3405 14.2795 44.3204 18.1182 40.5895L19.5476 42.0525C16.3472 45.3135 10.8218 44.9516 7.97704 41.4163C5.17983 37.9399 5.91155 32.8192 9.58142 30.2732C12.682 28.122 16.9077 28.4823 19.586 31.1153L21.4988 29.3003L21.4992 29.3002Z" fill="#1F2937"/>
  <path d="M43.7852 28.283V30.3161H52.4941V50.2977L52.5752 50.3781H54.5226L54.6036 50.2977V28.283H43.7852Z" fill="#1F2937"/>
  <path d="M58.6621 28.283V50.2977L58.7434 50.3781H60.6906L60.7717 50.2977V30.3161H69.4807V28.283H58.6621Z" fill="#1F2937"/>
  <path d="M95.6049 38.4462V40.4791H84.0019L83.9208 40.5594V42.8332H95.6049V44.9196H81.8652V38.4462H95.6049Z" fill="#1F2937"/>
  <path d="M95.6049 28.283V30.3159H83.9208V32.6699H95.6049V34.7564H81.8652V28.283H95.6049Z" fill="#1F2937"/>
  <path d="M37.6206 22.7703H35.457V50.3755H37.6206V22.7703Z" fill="#1F2937"/>
  <path d="M31.4006 22.7703H29.291V50.3755H31.4006V22.7703Z" fill="#1F2937"/>
  <path d="M69.5328 22.7703H43.7305V24.9103H69.5328V22.7703Z" fill="#1F2937"/>
  <path d="M115.012 30.9182C109.825 31.249 107.687 37.6171 111.698 40.9585C115.128 43.8163 120.414 41.6817 121.021 37.3428C121.507 33.8686 118.554 30.6923 115.012 30.9182ZM114.687 28.8854C120.931 28.4006 125.217 34.9877 122.118 40.4076C119.145 45.6073 111.459 45.5707 108.522 40.3541C105.768 35.4619 109.054 29.3229 114.687 28.8854Z" fill="#1F2937"/>
  <path d="M31.4012 4.88086C29.8087 4.88086 28.5135 6.16323 28.5135 7.73992C28.5135 9.31661 29.8087 10.599 31.4012 10.599C32.9936 10.599 34.2888 9.31661 34.2888 7.73992C34.2888 6.16323 32.9936 4.88086 31.4012 4.88086Z" fill="#1F2937"/>
  <path d="M22.1683 4.96107H18.9041V7.17023H22.1683C22.7834 7.17023 23.2834 6.67422 23.2834 6.06507C23.2834 5.45592 22.7835 4.96094 22.1683 4.96094V4.96107Z" fill="#1F2937"/>
  <path d="M0.911808 0V15.6508H69.5331V0H0.911808ZM14.1407 9.59212C13.4 11.1046 11.8672 11.9857 10.2747 11.9857C7.76832 11.9857 5.98379 9.90899 5.98379 7.75032C5.98379 6.54432 6.52863 5.37535 7.39081 4.59668C9.19346 2.96861 12.3422 3.04101 13.935 5.51399L12.7417 6.24128C11.5261 4.32542 8.69106 4.45509 7.68446 6.49076C6.98379 7.90767 7.58907 9.6221 9.02081 10.3112C10.4648 11.0063 12.3879 10.4049 13.0144 8.66225H9.77493V7.27507H14.6099C14.5712 8.58703 14.3857 9.09214 14.1408 9.59225L14.1407 9.59212ZM23.6179 11.7827L21.7245 8.55526H18.9048V11.7827H17.5037V3.57161H22.1689C23.5567 3.57161 24.6852 4.68894 24.6852 6.06292C24.6852 7.06826 24.0777 7.93163 23.21 8.32538L25.2386 11.7828H23.6178L23.6179 11.7827ZM31.4027 11.9857C29.0376 11.9857 27.114 10.0809 27.114 7.73943C27.114 5.39791 29.0377 3.49319 31.4027 3.49319C33.7677 3.49319 35.6914 5.39791 35.6914 7.73943C35.6914 10.0809 33.7677 11.9857 31.4027 11.9857ZM45.4932 8.57025C45.4932 10.3792 44.0109 11.9803 42.0397 11.9803C40.1356 11.9803 38.5873 10.4464 38.5873 8.56102V3.57148H39.9883V8.56102C39.9883 9.68143 40.909 10.593 42.0396 10.593C43.1004 10.593 44.0919 9.73396 44.0919 8.57025V3.57148H45.493V8.57025H45.4932ZM53.0523 9.04614H50.3694V11.7827H48.9683V3.57161H53.0523C54.5769 3.57161 55.8166 4.79888 55.8166 6.30843C55.8166 7.81797 54.577 9.04614 53.0523 9.04614ZM63.7908 4.95392H59.804V6.75651H63.3551V8.13895H59.804V10.4004H63.7908V11.7828H58.4079V3.57161H63.7908V4.95392Z" fill="#1F2937"/>
  <path d="M53.0538 4.96094H50.3709V7.66111H53.0538C53.8048 7.66111 54.4169 7.05503 54.4169 6.31057C54.4169 5.56612 53.8047 4.96094 53.0538 4.96094Z" fill="#1F2937"/>
</svg>