<svg width="188" height="51" viewBox="0 0 188 51" fill="none" xmlns="http://www.w3.org/2000/svg">
<path d="M103.553 2.55176C95.035 2.68607 90.0231 12.3845 94.96 19.3797C99.8636 26.328 110.508 25.0852 113.698 17.2416C116.585 10.1464 111.171 2.43178 103.553 2.55176ZM103.166 0.719545C113.238 0.225403 119.778 11.3275 114.422 19.8911C109.456 27.8296 97.7195 27.714 92.9281 19.669C88.0628 11.4997 93.7174 1.1832 103.166 0.719545Z" fill="#1F2937"/>
<path d="M68.291 0.850098V25.6811H86.0964V23.8006H70.1296V2.6822H86.0964V0.850098H68.291Z" fill="#1F2937"/>
<path d="M12.5908 0.720131C15.971 0.5543 19.4045 1.83671 21.8427 4.15291C21.9296 4.23537 22.086 4.3363 22.0131 4.46575L20.7536 5.6738C19.9683 4.97029 19.1519 4.30997 18.2143 3.81467C11.983 0.522543 4.28108 4.02242 2.71497 10.8399C0.973144 18.4223 7.6286 25.2111 15.2719 23.7388C17.3488 23.3387 19.2492 22.27 20.7536 20.8125L22.0322 22.1311C20.2387 23.946 17.805 25.2045 15.2719 25.6192C6.46973 27.0609 -0.991519 19.294 0.866993 10.5895C2.04936 5.05228 6.92571 0.998093 12.5907 0.720015" fill="#1F2937"/>
<path d="M19.811 6.68408V11.4092H15.0693L16.7592 9.69097C15.6735 8.4044 13.7861 7.92446 12.1562 8.24122C10.0298 8.65464 8.2366 10.5695 8.05972 12.7414C7.66938 17.5355 13.3533 20.2211 16.7868 16.8586L18.0654 18.1771C15.2028 21.1161 10.2604 20.7899 7.71592 17.6037C5.2139 14.4706 5.8684 9.85564 9.15098 7.56104C11.9243 5.62223 15.7041 5.94696 18.0997 8.31998L19.8107 6.68419L19.811 6.68408Z" fill="#1F2937"/>
<path d="M39.7441 5.76782V7.60016H47.534V25.6086L47.6065 25.6809H49.3484L49.4209 25.6086V5.76782H39.7441Z" fill="#1F2937"/>
<path d="M53.0498 5.76782V25.6086L53.1225 25.6809H54.8642L54.9368 25.6086V7.60016H62.7267V5.76782H53.0498Z" fill="#1F2937"/>
<path d="M86.0968 14.929V16.7612H75.7183L75.6457 16.8335V18.8827H86.0968V20.7632H73.8071V14.929H86.0968Z" fill="#1F2937"/>
<path d="M86.0968 5.76782V7.60004H75.6457V9.72166H86.0968V11.602H73.8071V5.76782H86.0968Z" fill="#1F2937"/>
<path d="M34.2277 0.802246H32.2925V25.6814H34.2277V0.802246Z" fill="#1F2937"/>
<path d="M28.6638 0.802246H26.7769V25.6814H28.6638V0.802246Z" fill="#1F2937"/>
<path d="M62.7747 0.80127H39.6953V2.72991H62.7747V0.80127Z" fill="#1F2937"/>
<path d="M103.458 8.14481C98.8183 8.44298 96.9062 14.1823 100.493 17.1937C103.561 19.7692 108.289 17.8454 108.833 13.935C109.267 10.8039 106.626 7.94121 103.458 8.14481ZM103.167 6.31282C108.752 5.87584 112.586 11.8125 109.814 16.6972C107.155 21.3834 100.28 21.3504 97.6531 16.6489C95.1895 12.2399 98.1283 6.70707 103.167 6.31282Z" fill="#1F2937"/>
<path d="M125.167 25.6969H121.207V0.854492H130.191C134.395 0.854492 137.814 4.26591 137.814 8.45902C137.814 12.6521 134.395 16.0636 130.191 16.0636H128.261V12.1132H130.191C132.211 12.1132 133.854 10.4739 133.854 8.45902C133.854 6.44411 132.211 4.80417 130.191 4.80417H125.167L125.167 25.6969Z" fill="#1F2937"/>
<path d="M145.675 0.853516H141.842V25.6959H145.675V0.853516Z" fill="#1F2937"/>
<path d="M159.2 25.7004L153.152 15.7012C156.221 14.7181 158.449 11.8424 158.449 8.45805C158.449 4.26494 155.029 0.853516 150.826 0.853516H148.458V4.80389H150.826C152.846 4.80389 154.489 6.44314 154.489 8.45805C154.489 10.473 152.846 12.1129 150.826 12.1129H148.458V15.5881L154.575 25.7004H159.2Z" fill="#1F2937"/>
<path d="M175.564 0.694824V4.68596C179.64 5.40517 182.747 8.96198 182.747 13.2315C182.747 18.0182 178.843 21.9127 174.046 21.9127C169.248 21.9127 165.344 18.0183 165.344 13.2315C165.344 8.9621 168.45 5.40529 172.527 4.68596V0.694824C166.259 1.44637 161.384 6.77986 161.384 13.2314C161.384 20.1963 167.064 25.8628 174.046 25.8628C181.027 25.8628 186.707 20.1963 186.707 13.2314C186.707 6.77986 181.831 1.44626 175.564 0.694824Z" fill="#1F2937"/>
<path d="M121.976 35.3284V36.5764H123.993V37.7361H121.976V39.0893H124.258V40.2933H120.47V34.1248H124.258V35.3284H121.976Z" fill="#3B76F6"/>
<path d="M133.368 34.1248V40.2933H131.862V36.5937L130.479 40.2933H129.264L127.872 36.585V40.2933H126.366V34.1248H128.145L129.88 38.3952L131.598 34.1248H133.368Z" fill="#3B76F6"/>
<path d="M140.354 38.615C140.354 39.5518 139.714 40.2933 138.302 40.2933H135.421V34.1248H138.204C139.458 34.1248 140.213 34.7287 140.213 35.7238C140.213 36.0929 140.098 36.8401 139.165 37.13C139.946 37.2885 140.354 37.9677 140.354 38.6151V38.615ZM136.928 36.6203H137.914C138.429 36.6203 138.681 36.3862 138.681 35.9788C138.681 35.5411 138.396 35.3283 137.914 35.3283H136.928V36.6202V36.6203ZM138.83 38.4129C138.83 38.0193 138.567 37.7189 138.02 37.7189H136.927V39.0807H138.037C138.513 39.0807 138.83 38.8725 138.83 38.4129Z" fill="#3B76F6"/>
<path d="M146.036 39.2035H143.728L143.358 40.2933H141.781L144.019 34.1248H145.763L148 40.2933H146.406L146.036 39.2035ZM145.648 38.0438L144.882 35.7854L144.124 38.0438H145.648Z" fill="#3B76F6"/>
<path d="M151.006 39.1333H152.979V40.2933H149.5V34.1248H151.006V39.1333Z" fill="#3B76F6"/>
<path d="M156.324 39.133H158.298V40.293H154.818V34.1245H156.324V39.133Z" fill="#3B76F6"/>
<path d="M164.029 39.2035H161.721L161.351 40.2933H159.774L162.012 34.1248H163.756L165.994 40.2933H164.399L164.029 39.2035ZM163.642 38.0438L162.875 35.7854L162.117 38.0438H163.642Z" fill="#3B76F6"/>
<path d="M176.893 35.3284V36.5764H178.91V37.7361H176.893V39.0893H179.174V40.2933H175.387V34.1248H179.174V35.3284H176.893Z" fill="#3B76F6"/>
<path d="M171.547 36.0753C171.435 35.8702 171.118 35.4425 170.331 35.4425C169.331 35.4425 168.718 36.1551 168.718 37.2C168.718 38.3397 169.372 39.0102 170.454 39.0102C171.488 39.0102 171.834 38.2721 171.951 37.9204H170.04V36.8133H173.317V38.2105C172.988 39.3043 171.95 40.337 170.34 40.337C168.477 40.337 167.186 39.0434 167.186 37.2C167.186 35.3426 168.492 34.054 170.331 34.054C171.799 34.054 172.877 34.7992 173.211 36.0752H171.547V36.0753Z" fill="#3B76F6"/>
<path d="M181.069 38.4476H182.672C182.735 39.0801 183.221 39.1507 183.438 39.1507C183.727 39.1507 184.161 39.0475 184.161 38.5709C184.161 38.0286 183.374 37.8434 182.989 37.7273C181.84 37.3806 181.087 36.9852 181.087 35.8731C181.087 34.6009 182.154 34.0366 183.342 34.0366C184.767 34.0366 185.615 34.7802 185.658 35.8818H184.029C183.999 35.4283 183.65 35.2403 183.289 35.2403C182.974 35.2403 182.681 35.3996 182.681 35.8028C182.681 36.1659 182.927 36.3208 183.843 36.6288C184.243 36.7631 184.567 36.8922 184.817 37.0154C185.187 37.1985 185.738 37.6032 185.738 38.4565C185.738 39.5488 184.859 40.3546 183.483 40.3546C182.007 40.3546 181.092 39.5691 181.069 38.4475V38.4476Z" fill="#3B76F6"/>
<path d="M181.069 48.6056H182.672C182.735 49.2381 183.221 49.3087 183.438 49.3087C183.727 49.3087 184.161 49.2054 184.161 48.7288C184.161 48.1865 183.374 48.0014 182.989 47.8852C181.84 47.5386 181.087 47.1432 181.087 46.0311C181.087 44.7588 182.154 44.1946 183.342 44.1946C184.767 44.1946 185.615 44.9382 185.658 46.0397H184.029C183.999 45.5862 183.65 45.3982 183.289 45.3982C182.974 45.3982 182.681 45.5576 182.681 45.9607C182.681 46.3238 182.927 46.4788 183.843 46.7868C184.243 46.9211 184.567 47.0502 184.817 47.1734C185.187 47.3564 185.738 47.7612 185.738 48.6145C185.738 49.7067 184.859 50.5125 183.483 50.5125C182.007 50.5125 181.092 49.727 181.069 48.6055V48.6056Z" fill="#3B76F6"/>
<path d="M107.586 50.4573L106.3 48.1286H105.939V50.4573H104.433V44.2888H106.961C108.411 44.2888 109.234 45.0797 109.234 46.2305C109.234 46.6406 109.081 47.6501 107.86 48.0143L109.287 50.4573H107.586ZM105.939 47.0654H106.873C107.42 47.0654 107.701 46.7861 107.701 46.2921C107.701 45.8133 107.414 45.5364 106.873 45.5364H105.939V47.0654Z" fill="#3B76F6"/>
<path d="M100.288 48.2419H99.3542V50.4564H97.8481V44.2878H100.288C101.972 44.2878 102.561 45.3015 102.561 46.2735C102.561 47.2851 101.874 48.2419 100.288 48.2419ZM101.028 46.2735C101.028 46.0277 100.969 45.5005 100.174 45.5005H99.3543V47.0469H100.174C100.963 47.0469 101.028 46.5196 101.028 46.2735Z" fill="#3B76F6"/>
<path d="M177.53 49.2954H179.506V50.4569H176.022V44.28H177.53V49.2955L177.53 49.2954Z" fill="#3B76F6"/>
<path d="M171.601 45.4856V46.735H173.621V47.8965H171.601V49.2515H173.885V50.4569H170.093V44.28H173.885V45.4855H171.601V45.4856Z" fill="#3B76F6"/>
<path d="M167.985 50.4569H166.477L163.954 46.6469V50.4569H162.446V44.28H163.954L166.477 48.1076V44.28H167.985V50.4569Z" fill="#3B76F6"/>
<path d="M160.357 50.4569H158.849L156.327 46.6469V50.4569H154.818V44.28H156.327L158.849 48.1076V44.28H160.357V50.4569Z" fill="#3B76F6"/>
<path d="M145.148 44.28V50.4569H143.64V44.28H145.148Z" fill="#3B76F6"/>
<path d="M137.12 48.6056H138.723C138.786 49.2381 139.273 49.3087 139.489 49.3087C139.779 49.3087 140.212 49.2054 140.212 48.7288C140.212 48.1865 139.426 48.0014 139.04 47.8852C137.891 47.5386 137.138 47.1432 137.138 46.0311C137.138 44.7588 138.206 44.1946 139.393 44.1946C140.818 44.1946 141.666 44.9382 141.71 46.0397H140.08C140.05 45.5862 139.701 45.3982 139.34 45.3982C139.025 45.3982 138.732 45.5576 138.732 45.9607C138.732 46.3238 138.978 46.4788 139.895 46.7868C140.294 46.9211 140.619 47.0502 140.868 47.1734C141.239 47.3564 141.789 47.7612 141.789 48.6145C141.789 49.7067 140.91 50.5125 139.534 50.5125C138.059 50.5125 137.144 49.727 137.12 48.6055V48.6056Z" fill="#3B76F6"/>
<path d="M130.614 48.6056H132.217C132.28 49.2381 132.766 49.3087 132.983 49.3087C133.272 49.3087 133.706 49.2054 133.706 48.7288C133.706 48.1865 132.919 48.0014 132.534 47.8852C131.385 47.5386 130.632 47.1432 130.632 46.0311C130.632 44.7588 131.699 44.1946 132.887 44.1946C134.312 44.1946 135.16 44.9382 135.203 46.0397H133.574C133.544 45.5862 133.195 45.3982 132.834 45.3982C132.519 45.3982 132.226 45.5576 132.226 45.9607C132.226 46.3238 132.472 46.4788 133.388 46.7868C133.788 46.9211 134.112 47.0502 134.362 47.1734C134.732 47.3564 135.282 47.7612 135.282 48.6145C135.282 49.7067 134.404 50.5125 133.028 50.5125C131.552 50.5125 130.637 49.727 130.614 48.6055V48.6056Z" fill="#3B76F6"/>
<path d="M126.495 45.4856V46.735H128.514V47.8965H126.495V49.2515H128.779V50.4569H124.986V44.28H128.779V45.4855H126.495V45.4856Z" fill="#3B76F6"/>
<path d="M123.093 44.28V45.4855H120.57V46.7877H122.458V47.958H120.57V50.4569H119.062V44.28H123.093Z" fill="#3B76F6"/>
<path d="M110.796 47.3508C110.796 45.4668 112.257 44.1919 113.98 44.1919C115.703 44.1919 117.147 45.4504 117.147 47.3508C117.147 49.2219 115.73 50.5184 113.98 50.5184C112.214 50.5184 110.796 49.1839 110.796 47.3508ZM115.612 47.3508C115.612 46.2384 114.949 45.5558 113.98 45.5558C112.933 45.5558 112.34 46.2927 112.34 47.3508C112.34 48.3904 112.938 49.1458 113.98 49.1458C114.959 49.1458 115.612 48.4448 115.612 47.3508Z" fill="#3B76F6"/>
<path d="M146.622 47.3508C146.622 45.4668 148.083 44.1919 149.806 44.1919C151.529 44.1919 152.973 45.4504 152.973 47.3508C152.973 49.2219 151.556 50.5184 149.806 50.5184C148.04 50.5184 146.622 49.1839 146.622 47.3508ZM151.438 47.3508C151.438 46.2384 150.774 45.5558 149.806 45.5558C148.759 45.5558 148.166 46.2927 148.166 47.3508C148.166 48.3904 148.764 49.1458 149.806 49.1458C150.785 49.1458 151.438 48.4448 151.438 47.3508Z" fill="#3B76F6"/>
</svg>
