<svg width="139" height="51" viewBox="0 0 139 51" fill="none" xmlns="http://www.w3.org/2000/svg">
<path d="M123.343 2.45264C113.21 2.61293 107.248 14.1875 113.12 22.536C118.954 30.8284 131.616 29.3452 135.411 19.9843C138.845 11.5164 132.404 2.30945 123.343 2.45264ZM122.883 0.26584C134.864 -0.323895 142.644 12.9259 136.272 23.1462C130.365 32.6204 116.403 32.4824 110.703 22.8811C104.916 13.1314 111.642 0.819191 122.883 0.26584Z" fill="#1F2937"/>
<path d="M81.396 0.421387V30.0559H102.577V27.8118H83.583V2.60791H102.577V0.421387H81.396Z" fill="#1F2937"/>
<path d="M15.1354 0.266114C19.1564 0.068203 23.2409 1.5987 26.1412 4.36297C26.2446 4.46138 26.4307 4.58183 26.3439 4.73633L24.8457 6.17807C23.9115 5.33847 22.9404 4.55041 21.825 3.9593C14.4123 0.0303029 5.25022 4.20724 3.3872 12.3436C1.31515 21.3928 9.23238 29.4949 18.3248 27.7378C20.7953 27.2602 23.0561 25.9848 24.8457 24.2454L26.3666 25.819C24.2332 27.985 21.338 29.487 18.3248 29.9819C7.85381 31.7025 -1.02198 22.4331 1.18887 12.0447C2.59539 5.43632 8.39623 0.597848 15.1352 0.265976" fill="#1F2937"/>
<path d="M23.7227 7.38472V13.0239H18.082L20.0924 10.9733C18.8008 9.43784 16.5555 8.86506 14.6167 9.2431C12.0871 9.7365 9.95396 12.0218 9.74354 14.6138C9.2792 20.3353 16.0407 23.5405 20.1251 19.5276L21.6461 21.1011C18.2408 24.6086 12.3615 24.2194 9.33456 20.4168C6.3582 16.6776 7.13678 11.1698 11.0417 8.43133C14.3408 6.11746 18.8372 6.50501 21.687 9.33709L23.7223 7.38486L23.7227 7.38472Z" fill="#1F2937"/>
<path d="M47.4365 6.29102V8.47768H56.7031V29.9699L56.7895 30.0563H58.8615L58.9479 29.9699V6.29102H47.4365Z" fill="#1F2937"/>
<path d="M63.2651 6.29102V29.9699L63.3516 30.0563H65.4235L65.5099 29.9699V8.47768H74.7765V6.29102H63.2651Z" fill="#1F2937"/>
<path d="M102.577 17.2244V19.4109H90.231L90.1447 19.4973V21.9429H102.577V24.1871H87.9575V17.2244H102.577Z" fill="#1F2937"/>
<path d="M102.577 6.29102V8.47768H90.1447V11.0096H102.577V13.2539H87.9575V6.29102H102.577Z" fill="#1F2937"/>
<path d="M40.8749 0.364258H38.5728V30.0564H40.8749V0.364258Z" fill="#1F2937"/>
<path d="M34.2555 0.364258H32.0107V30.0564H34.2555V0.364258Z" fill="#1F2937"/>
<path d="M74.8352 0.364258H47.3804V2.666H74.8352V0.364258Z" fill="#1F2937"/>
<path d="M123.227 9.12812C117.709 9.48398 115.434 16.3335 119.701 19.9275C123.351 23.0013 128.975 20.7053 129.621 16.0385C130.139 12.3016 126.996 8.88515 123.227 9.12812ZM122.882 6.94174C129.526 6.42022 134.086 13.5053 130.789 19.335C127.626 24.9278 119.447 24.8883 116.323 19.2774C113.392 14.0154 116.888 7.41226 122.882 6.94174Z" fill="#1F2937"/>
<path d="M3.00293 47.6453H5.22976C5.27479 48.3585 5.72192 49.0271 6.80332 49.0271C7.82165 49.0271 8.362 48.4817 8.362 47.7641C8.362 46.9738 7.8054 46.5896 6.20953 46.1595C3.56518 45.4469 3.03267 44.4785 3.03267 43.1285C3.03267 41.2631 4.51011 40.1123 6.68462 40.1123C9.06912 40.1123 10.3035 41.4479 10.3959 43.069H8.10973C8.06291 42.3916 7.51856 41.8359 6.53603 41.8359C5.76406 41.8359 5.20002 42.2262 5.20002 43.0542C5.20002 43.6434 5.5312 44.073 7.30815 44.5846C8.99448 45.0701 10.5146 45.6539 10.5146 47.6304C10.5146 49.3183 9.18245 50.7357 6.8478 50.7357C4.54261 50.7357 3.00293 49.4351 3.00293 47.6452V47.6453Z" fill="#1F2937"/>
<path d="M13.4897 45.4166C13.4897 42.3267 15.8694 40.1123 18.8043 40.1123C21.8184 40.1123 24.1041 42.3722 24.1041 45.4166C24.1041 48.54 21.7406 50.7357 18.8043 50.7357C15.8955 50.7357 13.4897 48.553 13.4897 45.4166ZM21.9663 45.4166C21.9663 43.4812 20.827 41.9845 18.8043 41.9845C16.7817 41.9845 15.6275 43.4618 15.6275 45.4166C15.6275 47.658 17.0361 48.8784 18.8043 48.8784C20.827 48.8784 21.9663 47.3531 21.9663 45.4166Z" fill="#1F2937"/>
<path d="M30.0315 40.261V50.6317H27.9531V40.261H30.0315Z" fill="#1F2937"/>
<path d="M43.3378 50.6308H41.2594L36.5535 43.5139V50.6308H34.4751V40.2454H36.5535L41.2594 47.377V40.2454H43.3378V50.6308Z" fill="#1F2937"/>
<path d="M56.4032 50.6312L55.2751 49.5169C54.3149 50.3786 53.1422 50.8095 51.7568 50.8095C49.626 50.8095 47.9268 49.7168 47.9268 47.63C47.9268 46.9466 48.1388 45.3681 50.2129 44.4652C49.9458 44.1385 49.4558 43.5198 49.4558 42.5487C49.4558 41.219 50.5107 40.0376 52.4991 40.0376C54.2823 40.0376 55.4584 41.0973 55.3791 42.6675H53.3602C53.3904 42.1577 53.1279 41.6571 52.4398 41.6571C51.8885 41.6571 51.4747 42.0167 51.4747 42.5337C51.4747 43.1962 52.0633 43.764 52.4248 44.1681L55.0376 46.7533C55.1118 46.6345 55.9581 45.223 55.9581 45.223H58.1255C58.1255 45.223 56.6044 47.905 56.448 48.15L58.9568 50.6312H56.4032ZM53.9686 48.2243L51.4152 45.6984C50.4552 46.1244 49.9753 46.7288 49.9753 47.5111C49.9753 48.3547 50.6562 49.0859 51.816 49.0859C52.6275 49.0859 53.345 48.7989 53.9686 48.2243Z" fill="#18A6A7"/>
<path d="M71.9084 40.261V50.6317H69.83V46.219H65.3914V50.6317H63.313V40.261H65.3914V44.5252H69.83V40.261H71.9084Z" fill="#1F2937"/>
<path d="M84.4287 40.261L80.9254 47.0214V50.6317H78.847V47.0214L75.3286 40.261H77.6741L79.901 45.0008L82.1128 40.261H84.4286H84.4287Z" fill="#1F2937"/>
<path d="M94.131 43.3808C93.8934 42.945 93.2669 42.0435 91.6963 42.0435C89.8808 42.0435 88.5492 43.3382 88.5492 45.4311C88.5492 47.5993 89.9263 48.8484 91.7854 48.8484C93.9894 48.8484 94.5664 47.2092 94.7249 46.4564H91.162V44.8666H96.7735V46.6792C96.3612 48.7992 94.4884 50.7204 91.7113 50.7204C88.8182 50.7204 86.4116 48.6695 86.4116 45.4311C86.4116 42.3588 88.6433 40.127 91.6965 40.127C93.4127 40.127 95.6971 40.825 96.5211 43.3808H94.131Z" fill="#1F2937"/>
<path d="M102.771 40.2607V50.6315H100.692V40.2607H102.771Z" fill="#1F2937"/>
<path d="M109.272 41.9399V44.5399H112.761V46.1892H109.272V48.9377H113.206V50.6315H107.194V40.2461H113.206V41.9399H109.272ZM111.751 38.1809V39.6667L108.337 38.1067V36.4128L111.751 38.1809Z" fill="#1F2937"/>
<path d="M125.951 50.6308H123.873L119.167 43.5139V50.6308H117.088V40.2454H119.167L123.873 47.377V40.2454H125.951V50.6308Z" fill="#1F2937"/>
<path d="M132.423 41.9402V44.5401H135.912V46.1894H132.423V48.938H136.357V50.6318H130.345V40.2463H136.357V41.9402H132.423Z" fill="#1F2937"/>
</svg>
